<svg width="325" height="76" viewBox="0 0 325 76" fill="none" xmlns="http://www.w3.org/2000/svg">
<path d="M80.3055 27C80.3055 24.2386 82.5441 22 85.3055 22H321C323.209 22 325 23.7909 325 26V58C325 60.7614 322.761 63 320 63H80.3055V27Z" fill="url(#paint0_linear)"/>
<path d="M137.827 46.8491C138.267 46.8491 138.627 46.8158 138.907 46.7491C139.2 46.6691 139.434 46.5691 139.607 46.4491C139.78 46.3158 139.9 46.1625 139.967 45.9891C140.034 45.8158 140.067 45.6225 140.067 45.4091C140.067 44.9558 139.854 44.5825 139.427 44.2891C139 43.9825 138.267 43.6558 137.227 43.3091C136.774 43.1491 136.32 42.9691 135.867 42.7691C135.414 42.5558 135.007 42.2958 134.647 41.9891C134.287 41.6691 133.994 41.2891 133.767 40.8491C133.54 40.3958 133.427 39.8491 133.427 39.2091C133.427 38.5691 133.547 37.9958 133.787 37.4891C134.027 36.9691 134.367 36.5291 134.807 36.1691C135.247 35.8091 135.78 35.5358 136.407 35.3491C137.034 35.1491 137.74 35.0491 138.527 35.0491C139.46 35.0491 140.267 35.1491 140.947 35.3491C141.627 35.5491 142.187 35.7691 142.627 36.0091L141.727 38.4691C141.34 38.2691 140.907 38.0958 140.427 37.9491C139.96 37.7891 139.394 37.7091 138.727 37.7091C137.98 37.7091 137.44 37.8158 137.107 38.0291C136.787 38.2291 136.627 38.5425 136.627 38.9691C136.627 39.2225 136.687 39.4358 136.807 39.6091C136.927 39.7825 137.094 39.9425 137.307 40.0891C137.534 40.2225 137.787 40.3491 138.067 40.4691C138.36 40.5758 138.68 40.6891 139.027 40.8091C139.747 41.0758 140.374 41.3425 140.907 41.6091C141.44 41.8625 141.88 42.1625 142.227 42.5091C142.587 42.8558 142.854 43.2625 143.027 43.7291C143.2 44.1958 143.287 44.7625 143.287 45.4291C143.287 46.7225 142.834 47.7291 141.927 48.4491C141.02 49.1558 139.654 49.5091 137.827 49.5091C137.214 49.5091 136.66 49.4691 136.167 49.3891C135.674 49.3225 135.234 49.2358 134.847 49.1291C134.474 49.0225 134.147 48.9091 133.867 48.7891C133.6 48.6691 133.374 48.5558 133.187 48.4491L134.067 45.9691C134.48 46.1958 134.987 46.4025 135.587 46.5891C136.2 46.7625 136.947 46.8491 137.827 46.8491ZM144.987 44.0491C144.987 43.1158 145.127 42.3025 145.407 41.6091C145.701 40.9025 146.081 40.3158 146.547 39.8491C147.014 39.3825 147.547 39.0291 148.147 38.7891C148.761 38.5491 149.387 38.4291 150.027 38.4291C151.521 38.4291 152.701 38.8891 153.567 39.8091C154.434 40.7158 154.867 42.0558 154.867 43.8291C154.867 44.0025 154.861 44.1958 154.847 44.4091C154.834 44.6091 154.821 44.7891 154.807 44.9491H148.047C148.114 45.5625 148.401 46.0491 148.907 46.4091C149.414 46.7691 150.094 46.9491 150.947 46.9491C151.494 46.9491 152.027 46.9025 152.547 46.8091C153.081 46.7025 153.514 46.5758 153.847 46.4291L154.247 48.8491C154.087 48.9291 153.874 49.0091 153.607 49.0891C153.341 49.1691 153.041 49.2358 152.707 49.2891C152.387 49.3558 152.041 49.4091 151.667 49.4491C151.294 49.4891 150.921 49.5091 150.547 49.5091C149.601 49.5091 148.774 49.3691 148.067 49.0891C147.374 48.8091 146.794 48.4291 146.327 47.9491C145.874 47.4558 145.534 46.8758 145.307 46.2091C145.094 45.5425 144.987 44.8225 144.987 44.0491ZM151.987 42.9091C151.974 42.6558 151.927 42.4091 151.847 42.1691C151.781 41.9291 151.667 41.7158 151.507 41.5291C151.361 41.3425 151.167 41.1891 150.927 41.0691C150.701 40.9491 150.414 40.8891 150.067 40.8891C149.734 40.8891 149.447 40.9491 149.207 41.0691C148.967 41.1758 148.767 41.3225 148.607 41.5091C148.447 41.6958 148.321 41.9158 148.227 42.1691C148.147 42.4091 148.087 42.6558 148.047 42.9091H151.987ZM161.367 49.4291C160.501 49.4158 159.794 49.3225 159.247 49.1491C158.714 48.9758 158.287 48.7358 157.967 48.4291C157.661 48.1091 157.447 47.7291 157.327 47.2891C157.221 46.8358 157.167 46.3291 157.167 45.7691V34.1891L160.147 33.7091V45.1691C160.147 45.4358 160.167 45.6758 160.207 45.8891C160.247 46.1025 160.321 46.2825 160.427 46.4291C160.547 46.5758 160.714 46.6958 160.927 46.7891C161.141 46.8825 161.427 46.9425 161.787 46.9691L161.367 49.4291ZM170.235 44.0491C170.235 43.1291 170.029 42.3958 169.615 41.8491C169.202 41.2891 168.589 41.0091 167.775 41.0091C167.509 41.0091 167.262 41.0225 167.035 41.0491C166.809 41.0625 166.622 41.0825 166.475 41.1091V46.4891C166.662 46.6091 166.902 46.7091 167.195 46.7891C167.502 46.8691 167.809 46.9091 168.115 46.9091C169.529 46.9091 170.235 45.9558 170.235 44.0491ZM173.275 43.9691C173.275 44.7825 173.175 45.5225 172.975 46.1891C172.775 46.8558 172.482 47.4291 172.095 47.9091C171.709 48.3891 171.229 48.7625 170.655 49.0291C170.082 49.2958 169.422 49.4291 168.675 49.4291C168.262 49.4291 167.875 49.3891 167.515 49.3091C167.155 49.2291 166.809 49.1158 166.475 48.9691V52.9291H163.495V39.0691C163.762 38.9891 164.069 38.9158 164.415 38.8491C164.762 38.7691 165.122 38.7025 165.495 38.6491C165.882 38.5958 166.269 38.5558 166.655 38.5291C167.055 38.4891 167.435 38.4691 167.795 38.4691C168.662 38.4691 169.435 38.6025 170.115 38.8691C170.795 39.1225 171.369 39.4891 171.835 39.9691C172.302 40.4358 172.655 41.0091 172.895 41.6891C173.149 42.3691 173.275 43.1291 173.275 43.9691ZM181.906 41.3491C181.639 41.2825 181.326 41.2158 180.966 41.1491C180.606 41.0691 180.219 41.0291 179.806 41.0291C179.619 41.0291 179.392 41.0491 179.126 41.0891C178.872 41.1158 178.679 41.1491 178.546 41.1891V49.2291H175.566V39.2691C176.099 39.0825 176.726 38.9091 177.446 38.7491C178.179 38.5758 178.992 38.4891 179.886 38.4891C180.046 38.4891 180.239 38.5025 180.466 38.5291C180.692 38.5425 180.919 38.5691 181.146 38.6091C181.372 38.6358 181.599 38.6758 181.826 38.7291C182.052 38.7691 182.246 38.8225 182.406 38.8891L181.906 41.3491ZM193.648 43.9491C193.648 44.7758 193.528 45.5358 193.288 46.2291C193.048 46.9091 192.701 47.4958 192.248 47.9891C191.794 48.4691 191.248 48.8425 190.608 49.1091C189.981 49.3758 189.274 49.5091 188.488 49.5091C187.714 49.5091 187.008 49.3758 186.368 49.1091C185.741 48.8425 185.201 48.4691 184.748 47.9891C184.294 47.4958 183.941 46.9091 183.688 46.2291C183.434 45.5358 183.308 44.7758 183.308 43.9491C183.308 43.1225 183.434 42.3691 183.688 41.6891C183.954 41.0091 184.314 40.4291 184.768 39.9491C185.234 39.4691 185.781 39.0958 186.408 38.8291C187.048 38.5625 187.741 38.4291 188.488 38.4291C189.248 38.4291 189.941 38.5625 190.568 38.8291C191.208 39.0958 191.754 39.4691 192.208 39.9491C192.661 40.4291 193.014 41.0091 193.268 41.6891C193.521 42.3691 193.648 43.1225 193.648 43.9491ZM190.608 43.9491C190.608 43.0291 190.421 42.3091 190.048 41.7891C189.688 41.2558 189.168 40.9891 188.488 40.9891C187.808 40.9891 187.281 41.2558 186.908 41.7891C186.534 42.3091 186.348 43.0291 186.348 43.9491C186.348 44.8691 186.534 45.6025 186.908 46.1491C187.281 46.6825 187.808 46.9491 188.488 46.9491C189.168 46.9491 189.688 46.6825 190.048 46.1491C190.421 45.6025 190.608 44.8691 190.608 43.9491ZM201.736 43.6491C201.736 42.6891 201.61 42.0091 201.356 41.6091C201.116 41.2091 200.696 41.0091 200.096 41.0091C199.91 41.0091 199.716 41.0225 199.516 41.0491C199.316 41.0625 199.123 41.0825 198.936 41.1091V49.2291H195.956V39.0691C196.21 39.0025 196.503 38.9358 196.836 38.8691C197.183 38.7891 197.543 38.7225 197.916 38.6691C198.303 38.6025 198.696 38.5558 199.096 38.5291C199.496 38.4891 199.89 38.4691 200.276 38.4691C201.036 38.4691 201.65 38.5691 202.116 38.7691C202.596 38.9558 202.99 39.1825 203.296 39.4491C203.723 39.1425 204.21 38.9025 204.756 38.7291C205.316 38.5558 205.83 38.4691 206.296 38.4691C207.136 38.4691 207.823 38.5891 208.356 38.8291C208.903 39.0558 209.336 39.3825 209.656 39.8091C209.976 40.2358 210.196 40.7425 210.316 41.3291C210.436 41.9158 210.496 42.5691 210.496 43.2891V49.2291H207.516V43.6491C207.516 42.6891 207.39 42.0091 207.136 41.6091C206.896 41.2091 206.476 41.0091 205.876 41.0091C205.716 41.0091 205.49 41.0491 205.196 41.1291C204.916 41.2091 204.683 41.3091 204.496 41.4291C204.59 41.7358 204.65 42.0625 204.676 42.4091C204.703 42.7425 204.716 43.1025 204.716 43.4891V49.2291H201.736V43.6491ZM228.487 35.3691V38.0291H224.307V49.2291H221.187V38.0291H217.007V35.3691H228.487ZM228.288 44.0491C228.288 43.1158 228.428 42.3025 228.708 41.6091C229.002 40.9025 229.382 40.3158 229.848 39.8491C230.315 39.3825 230.848 39.0291 231.448 38.7891C232.062 38.5491 232.688 38.4291 233.328 38.4291C234.822 38.4291 236.002 38.8891 236.868 39.8091C237.735 40.7158 238.168 42.0558 238.168 43.8291C238.168 44.0025 238.162 44.1958 238.148 44.4091C238.135 44.6091 238.122 44.7891 238.108 44.9491H231.348C231.415 45.5625 231.702 46.0491 232.208 46.4091C232.715 46.7691 233.395 46.9491 234.248 46.9491C234.795 46.9491 235.328 46.9025 235.848 46.8091C236.382 46.7025 236.815 46.5758 237.148 46.4291L237.548 48.8491C237.388 48.9291 237.175 49.0091 236.908 49.0891C236.642 49.1691 236.342 49.2358 236.008 49.2891C235.688 49.3558 235.342 49.4091 234.968 49.4491C234.595 49.4891 234.222 49.5091 233.848 49.5091C232.902 49.5091 232.075 49.3691 231.368 49.0891C230.675 48.8091 230.095 48.4291 229.628 47.9491C229.175 47.4558 228.835 46.8758 228.608 46.2091C228.395 45.5425 228.288 44.8225 228.288 44.0491ZM235.288 42.9091C235.275 42.6558 235.228 42.4091 235.148 42.1691C235.082 41.9291 234.968 41.7158 234.808 41.5291C234.662 41.3425 234.468 41.1891 234.228 41.0691C234.002 40.9491 233.715 40.8891 233.368 40.8891C233.035 40.8891 232.748 40.9491 232.508 41.0691C232.268 41.1758 232.068 41.3225 231.908 41.5091C231.748 41.6958 231.622 41.9158 231.528 42.1691C231.448 42.4091 231.388 42.6558 231.348 42.9091H235.288ZM239.968 43.9691C239.968 43.2091 240.088 42.4958 240.328 41.8291C240.581 41.1491 240.941 40.5625 241.408 40.0691C241.875 39.5625 242.441 39.1625 243.108 38.8691C243.775 38.5758 244.535 38.4291 245.388 38.4291C245.948 38.4291 246.461 38.4825 246.928 38.5891C247.395 38.6825 247.848 38.8225 248.288 39.0091L247.668 41.3891C247.388 41.2825 247.081 41.1891 246.748 41.1091C246.415 41.0291 246.041 40.9891 245.628 40.9891C244.748 40.9891 244.088 41.2625 243.648 41.8091C243.221 42.3558 243.008 43.0758 243.008 43.9691C243.008 44.9158 243.208 45.6491 243.608 46.1691C244.021 46.6891 244.735 46.9491 245.748 46.9491C246.108 46.9491 246.495 46.9158 246.908 46.8491C247.321 46.7825 247.701 46.6758 248.048 46.5291L248.468 48.9691C248.121 49.1158 247.688 49.2425 247.168 49.3491C246.648 49.4558 246.075 49.5091 245.448 49.5091C244.488 49.5091 243.661 49.3691 242.968 49.0891C242.275 48.7958 241.701 48.4025 241.248 47.9091C240.808 47.4158 240.481 46.8358 240.268 46.1691C240.068 45.4891 239.968 44.7558 239.968 43.9691ZM250.468 39.0691C250.975 38.9225 251.628 38.7891 252.428 38.6691C253.228 38.5358 254.068 38.4691 254.948 38.4691C255.841 38.4691 256.581 38.5891 257.168 38.8291C257.768 39.0558 258.241 39.3825 258.588 39.8091C258.935 40.2358 259.181 40.7425 259.328 41.3291C259.475 41.9158 259.548 42.5691 259.548 43.2891V49.2291H256.568V43.6491C256.568 42.6891 256.441 42.0091 256.188 41.6091C255.935 41.2091 255.461 41.0091 254.768 41.0091C254.555 41.0091 254.328 41.0225 254.088 41.0491C253.848 41.0625 253.635 41.0825 253.448 41.1091V49.2291H250.468V39.0691ZM272.085 43.9491C272.085 44.7758 271.965 45.5358 271.725 46.2291C271.485 46.9091 271.139 47.4958 270.685 47.9891C270.232 48.4691 269.685 48.8425 269.045 49.1091C268.419 49.3758 267.712 49.5091 266.925 49.5091C266.152 49.5091 265.445 49.3758 264.805 49.1091C264.179 48.8425 263.639 48.4691 263.185 47.9891C262.732 47.4958 262.379 46.9091 262.125 46.2291C261.872 45.5358 261.745 44.7758 261.745 43.9491C261.745 43.1225 261.872 42.3691 262.125 41.6891C262.392 41.0091 262.752 40.4291 263.205 39.9491C263.672 39.4691 264.219 39.0958 264.845 38.8291C265.485 38.5625 266.179 38.4291 266.925 38.4291C267.685 38.4291 268.379 38.5625 269.005 38.8291C269.645 39.0958 270.192 39.4691 270.645 39.9491C271.099 40.4291 271.452 41.0091 271.705 41.6891C271.959 42.3691 272.085 43.1225 272.085 43.9491ZM269.045 43.9491C269.045 43.0291 268.859 42.3091 268.485 41.7891C268.125 41.2558 267.605 40.9891 266.925 40.9891C266.245 40.9891 265.719 41.2558 265.345 41.7891C264.972 42.3091 264.785 43.0291 264.785 43.9491C264.785 44.8691 264.972 45.6025 265.345 46.1491C265.719 46.6825 266.245 46.9491 266.925 46.9491C267.605 46.9491 268.125 46.6825 268.485 46.1491C268.859 45.6025 269.045 44.8691 269.045 43.9491ZM278.594 49.4291C277.727 49.4158 277.02 49.3225 276.474 49.1491C275.94 48.9758 275.514 48.7358 275.194 48.4291C274.887 48.1091 274.674 47.7291 274.554 47.2891C274.447 46.8358 274.394 46.3291 274.394 45.7691V34.1891L277.374 33.7091V45.1691C277.374 45.4358 277.394 45.6758 277.434 45.8891C277.474 46.1025 277.547 46.2825 277.654 46.4291C277.774 46.5758 277.94 46.6958 278.154 46.7891C278.367 46.8825 278.654 46.9425 279.014 46.9691L278.594 49.4291ZM290.562 43.9491C290.562 44.7758 290.442 45.5358 290.202 46.2291C289.962 46.9091 289.615 47.4958 289.162 47.9891C288.709 48.4691 288.162 48.8425 287.522 49.1091C286.895 49.3758 286.189 49.5091 285.402 49.5091C284.629 49.5091 283.922 49.3758 283.282 49.1091C282.655 48.8425 282.115 48.4691 281.662 47.9891C281.209 47.4958 280.855 46.9091 280.602 46.2291C280.349 45.5358 280.222 44.7758 280.222 43.9491C280.222 43.1225 280.349 42.3691 280.602 41.6891C280.869 41.0091 281.229 40.4291 281.682 39.9491C282.149 39.4691 282.695 39.0958 283.322 38.8291C283.962 38.5625 284.655 38.4291 285.402 38.4291C286.162 38.4291 286.855 38.5625 287.482 38.8291C288.122 39.0958 288.669 39.4691 289.122 39.9491C289.575 40.4291 289.929 41.0091 290.182 41.6891C290.435 42.3691 290.562 43.1225 290.562 43.9491ZM287.522 43.9491C287.522 43.0291 287.335 42.3091 286.962 41.7891C286.602 41.2558 286.082 40.9891 285.402 40.9891C284.722 40.9891 284.195 41.2558 283.822 41.7891C283.449 42.3091 283.262 43.0291 283.262 43.9491C283.262 44.8691 283.449 45.6025 283.822 46.1491C284.195 46.6825 284.722 46.9491 285.402 46.9491C286.082 46.9491 286.602 46.6825 286.962 46.1491C287.335 45.6025 287.522 44.8691 287.522 43.9491ZM295.41 43.6291C295.41 45.2958 296.084 46.1291 297.43 46.1291C297.737 46.1291 298.024 46.0891 298.29 46.0091C298.557 45.9291 298.784 45.8358 298.97 45.7291V40.9691C298.824 40.9425 298.65 40.9225 298.45 40.9091C298.25 40.8825 298.017 40.8691 297.75 40.8691C296.964 40.8691 296.377 41.1291 295.99 41.6491C295.604 42.1691 295.41 42.8291 295.41 43.6291ZM301.95 47.9091C301.95 49.6291 301.51 50.9025 300.63 51.7291C299.764 52.5691 298.417 52.9891 296.59 52.9891C295.95 52.9891 295.31 52.9291 294.67 52.8091C294.03 52.7025 293.437 52.5558 292.89 52.3691L293.41 49.8691C293.877 50.0558 294.364 50.2025 294.87 50.3091C295.39 50.4158 295.977 50.4691 296.63 50.4691C297.484 50.4691 298.084 50.2825 298.43 49.9091C298.79 49.5358 298.97 49.0558 298.97 48.4691V48.0891C298.65 48.2358 298.317 48.3491 297.97 48.4291C297.637 48.4958 297.27 48.5291 296.87 48.5291C295.417 48.5291 294.304 48.1025 293.53 47.2491C292.757 46.3825 292.37 45.1758 292.37 43.6291C292.37 42.8558 292.49 42.1558 292.73 41.5291C292.97 40.8891 293.317 40.3425 293.77 39.8891C294.237 39.4358 294.804 39.0891 295.47 38.8491C296.137 38.5958 296.89 38.4691 297.73 38.4691C298.09 38.4691 298.457 38.4891 298.83 38.5291C299.217 38.5558 299.597 38.5958 299.97 38.6491C300.344 38.7025 300.697 38.7691 301.03 38.8491C301.377 38.9158 301.684 38.9891 301.95 39.0691V47.9091ZM307.725 49.2291H304.745V38.7091H307.725V49.2291ZM308.005 35.6691C308.005 36.2158 307.825 36.6491 307.465 36.9691C307.119 37.2758 306.705 37.4291 306.225 37.4291C305.745 37.4291 305.325 37.2758 304.965 36.9691C304.619 36.6491 304.445 36.2158 304.445 35.6691C304.445 35.1225 304.619 34.6958 304.965 34.3891C305.325 34.0691 305.745 33.9091 306.225 33.9091C306.705 33.9091 307.119 34.0691 307.465 34.3891C307.825 34.6958 308.005 35.1225 308.005 35.6691ZM314.547 47.1491C314.84 47.1491 315.12 47.1425 315.387 47.1291C315.653 47.1158 315.867 47.0958 316.027 47.0691V44.8091C315.907 44.7825 315.727 44.7558 315.487 44.7291C315.247 44.7025 315.027 44.6891 314.827 44.6891C314.547 44.6891 314.28 44.7091 314.027 44.7491C313.787 44.7758 313.573 44.8358 313.387 44.9291C313.2 45.0225 313.053 45.1491 312.947 45.3091C312.84 45.4691 312.787 45.6691 312.787 45.9091C312.787 46.3758 312.94 46.7025 313.247 46.8891C313.567 47.0625 314 47.1491 314.547 47.1491ZM314.307 38.4291C315.187 38.4291 315.92 38.5291 316.507 38.7291C317.093 38.9291 317.56 39.2158 317.907 39.5891C318.267 39.9625 318.52 40.4158 318.667 40.9491C318.813 41.4825 318.887 42.0758 318.887 42.7291V48.9291C318.46 49.0225 317.867 49.1291 317.107 49.2491C316.347 49.3825 315.427 49.4491 314.347 49.4491C313.667 49.4491 313.047 49.3891 312.487 49.2691C311.94 49.1491 311.467 48.9558 311.067 48.6891C310.667 48.4091 310.36 48.0491 310.147 47.6091C309.933 47.1691 309.827 46.6291 309.827 45.9891C309.827 45.3758 309.947 44.8558 310.187 44.4291C310.44 44.0025 310.773 43.6625 311.187 43.4091C311.6 43.1558 312.073 42.9758 312.607 42.8691C313.14 42.7491 313.693 42.6891 314.267 42.6891C314.653 42.6891 314.993 42.7091 315.287 42.7491C315.593 42.7758 315.84 42.8158 316.027 42.8691V42.5891C316.027 42.0825 315.873 41.6758 315.567 41.3691C315.26 41.0625 314.727 40.9091 313.967 40.9091C313.46 40.9091 312.96 40.9491 312.467 41.0291C311.973 41.0958 311.547 41.1958 311.187 41.3291L310.807 38.9291C310.98 38.8758 311.193 38.8225 311.447 38.7691C311.713 38.7025 312 38.6491 312.307 38.6091C312.613 38.5558 312.933 38.5158 313.267 38.4891C313.613 38.4491 313.96 38.4291 314.307 38.4291Z" fill="white"/>
<path d="M54.6746 0.00401306V20.7502H22.8953C22.5117 20.7456 22.131 20.8238 21.7751 20.9808C21.4194 21.1376 21.0955 21.3699 20.8224 21.6641C20.6002 21.9044 20.4188 22.1858 20.2867 22.4955C20.5823 17.2402 22.4056 12.225 25.4914 8.1798C28.5771 4.13457 32.7642 1.27037 37.4434 0.00401306H54.6746Z" fill="url(#paint1_linear)"/>
<path d="M38.024 52.3273C37.7618 57.609 35.9575 62.66 32.8755 66.7402C29.7936 70.8204 25.5961 73.7151 20.8982 75H4.45801V54.2581H35.325C35.7178 54.2637 36.1076 54.1825 36.4708 54.0193C36.8182 53.8646 37.1335 53.635 37.3979 53.3442C37.6639 53.0517 37.8763 52.7066 38.024 52.3273Z" fill="url(#paint2_linear)"/>
<path d="M57.2305 51.0803C57.2441 54.2799 56.6591 57.4488 55.5114 60.3925C55.2778 60.9851 55.0215 61.5691 54.7432 62.1378C54.7353 62.1616 54.7273 62.1703 54.7273 62.1866C54.7247 62.1989 54.7196 62.2104 54.7124 62.2203C52.3513 67.0953 48.5269 70.9351 43.8808 73.0953C41.1796 74.3674 38.2664 75.0148 35.3249 74.9969H20.9049L21.0709 74.948C25.7297 73.631 29.8837 70.7287 32.9316 66.6612C35.9795 62.5938 37.763 57.5724 38.0238 52.3241V52.3155C38.2995 51.5322 38.3047 50.6661 38.0387 49.8789C38.0318 49.8626 38.0238 49.8376 38.0159 49.8214C37.8725 49.4429 37.6625 49.0988 37.3978 48.8087C37.1266 48.5121 36.8029 48.2788 36.4466 48.123C36.0902 47.9672 35.7085 47.8922 35.3249 47.9025H22.8954C22.2773 47.9025 21.6592 47.8786 21.048 47.8124C21.0262 47.8124 21.0033 47.8037 20.9735 47.8037C18.6903 47.6063 16.4532 46.9945 14.3543 45.9934C9.13164 43.5379 4.973 38.9838 2.73867 33.2732C2.44445 32.5375 2.18769 31.7846 1.96954 31.0179C1.31734 28.7225 0.98962 26.3318 0.997679 23.9285C0.984582 20.7216 1.57725 17.5463 2.73867 14.6011C4.98597 8.90791 9.14171 4.36903 14.3543 1.91455C15.8757 1.18703 17.4734 0.66721 19.1113 0.366862C19.1719 0.349496 19.2166 0.341893 19.2464 0.33321C19.2614 0.329047 19.2767 0.326498 19.2921 0.325609C20.4828 0.108134 21.6881 -0.000778331 22.8954 4.18666e-06H37.4435C32.7642 1.26637 28.5771 4.13056 25.4914 8.17579C22.4057 12.221 20.5824 17.2362 20.2868 22.4915C20.255 22.5525 20.2274 22.616 20.2044 22.6814C20.0555 23.0753 19.9812 23.498 19.9857 23.9241C19.9815 24.3703 20.0581 24.8129 20.2113 25.2265C20.2273 25.2725 20.2476 25.3165 20.2719 25.3578C20.4018 25.6876 20.5887 25.9868 20.8225 26.2391C21.0945 26.535 21.4182 26.7682 21.7742 26.9252C22.1303 27.0822 22.5115 27.1596 22.8954 27.153H35.3249C38.2601 27.1359 41.1679 27.7718 43.8709 29.0219C49.1264 31.435 53.307 36.001 55.5163 41.741C55.8083 42.485 56.0627 43.2458 56.2785 44.0202C56.9169 46.3084 57.2378 48.6883 57.2305 51.0803Z" fill="url(#paint3_linear)"/>
<path d="M57.2305 51.0803C57.2441 54.2799 56.6591 57.4488 55.5114 60.3925C55.2778 60.9851 55.0215 61.5691 54.7432 62.1378C54.7353 62.1616 54.7273 62.1703 54.7273 62.1866C54.7247 62.1989 54.7196 62.2104 54.7124 62.2203C52.3513 67.0953 48.5269 70.9351 43.8808 73.0953C41.1796 74.3674 38.2664 75.0148 35.3249 74.9969H20.9049L21.0709 74.948C25.7297 73.631 29.8837 70.7287 32.9316 66.6612C35.9795 62.5938 37.763 57.5724 38.0238 52.3241V52.3155C38.2995 51.5322 38.3047 50.6661 38.0387 49.8789C38.0318 49.8626 38.0238 49.8376 38.0159 49.8214C37.8725 49.4429 37.6625 49.0988 37.3978 48.8087C37.1266 48.5121 36.8029 48.2788 36.4466 48.123C36.0902 47.9672 35.7085 47.8922 35.3249 47.9025H22.8954C22.2773 47.9025 21.6592 47.8786 21.048 47.8124C21.0262 47.8124 21.0033 47.8037 20.9735 47.8037C18.6903 47.6063 16.4532 46.9945 14.3543 45.9934C9.13164 43.5379 4.973 38.9838 2.73867 33.2732C2.44445 32.5375 2.18769 31.7846 1.96954 31.0179C1.31734 28.7225 0.98962 26.3318 0.997679 23.9285C0.984582 20.7216 1.57725 17.5463 2.73867 14.6011C4.98597 8.90791 9.14171 4.36903 14.3543 1.91455C15.8757 1.18703 17.4734 0.66721 19.1113 0.366862C19.1719 0.349496 19.2166 0.341893 19.2464 0.33321C19.2614 0.329047 19.2767 0.326498 19.2921 0.325609C20.4828 0.108134 21.6881 -0.000778331 22.8954 4.18666e-06H37.4435C32.7642 1.26637 28.5771 4.13056 25.4914 8.17579C22.4057 12.221 20.5824 17.2362 20.2868 22.4915C20.255 22.5525 20.2274 22.616 20.2044 22.6814C20.0555 23.0753 19.9812 23.498 19.9857 23.9241C19.9815 24.3703 20.0581 24.8129 20.2113 25.2265C20.2273 25.2725 20.2476 25.3165 20.2719 25.3578C20.4018 25.6876 20.5887 25.9868 20.8225 26.2391C21.0945 26.535 21.4182 26.7682 21.7742 26.9252C22.1303 27.0822 22.5115 27.1596 22.8954 27.153H35.3249C38.2601 27.1359 41.1679 27.7718 43.8709 29.0219C49.1264 31.435 53.307 36.001 55.5163 41.741C55.8083 42.485 56.0627 43.2458 56.2785 44.0202C56.9169 46.3084 57.2378 48.6883 57.2305 51.0803Z" fill="url(#paint4_linear)"/>
<path d="M52.6755 0H113.124L103.452 20.7203H92.8131H86.5265V75.5H75.8876H65.2487V20.7203H52.6755V0Z" fill="url(#paint5_linear)"/>
<defs>
<linearGradient id="paint0_linear" x1="325" y1="42.8474" x2="80.3025" y2="43.7631" gradientUnits="userSpaceOnUse">
<stop offset="0.015625" stop-color="#1D5AA4"/>
<stop offset="1" stop-color="#0F3460"/>
</linearGradient>
<linearGradient id="paint1_linear" x1="54.6746" y1="11.2497" x2="21.6966" y2="11.2497" gradientUnits="userSpaceOnUse">
<stop stop-color="white"/>
<stop offset="1" stop-color="#F2F2F2"/>
</linearGradient>
<linearGradient id="paint2_linear" x1="3.14894" y1="63.6636" x2="34.8352" y2="63.6636" gradientUnits="userSpaceOnUse">
<stop stop-color="white"/>
<stop offset="1" stop-color="#F2F2F2"/>
</linearGradient>
<linearGradient id="paint3_linear" x1="29.1141" y1="-0.599978" x2="29.1141" y2="77.0221" gradientUnits="userSpaceOnUse">
<stop stop-color="white"/>
<stop offset="1" stop-color="#F2F2F2"/>
</linearGradient>
<linearGradient id="paint4_linear" x1="29.1141" y1="-0.599978" x2="29.1141" y2="77.0221" gradientUnits="userSpaceOnUse">
<stop stop-color="white"/>
<stop offset="1" stop-color="#F2F2F2"/>
</linearGradient>
<linearGradient id="paint5_linear" x1="75.8876" y1="0" x2="75.8876" y2="75.5" gradientUnits="userSpaceOnUse">
<stop stop-color="white"/>
<stop offset="1" stop-color="#F2F2F2"/>
</linearGradient>
</defs>
</svg>
