<svg width="114" height="76" viewBox="0 0 114 76" fill="none" xmlns="http://www.w3.org/2000/svg">
<path d="M54.6746 0.00401306V20.7502H22.8953C22.5117 20.7456 22.131 20.8238 21.7751 20.9808C21.4194 21.1376 21.0955 21.3699 20.8224 21.6641C20.6002 21.9044 20.4188 22.1858 20.2867 22.4955C20.5823 17.2402 22.4056 12.225 25.4914 8.1798C28.5771 4.13457 32.7642 1.27037 37.4434 0.00401306H54.6746Z" fill="url(#paint0_linear)"/>
<path d="M38.024 52.3273C37.7618 57.609 35.9575 62.66 32.8755 66.7402C29.7936 70.8204 25.5961 73.7151 20.8982 75H4.45801V54.2581H35.325C35.7178 54.2637 36.1076 54.1825 36.4708 54.0193C36.8182 53.8646 37.1335 53.635 37.3979 53.3442C37.6639 53.0517 37.8763 52.7066 38.024 52.3273Z" fill="url(#paint1_linear)"/>
<path d="M57.2305 51.0803C57.2441 54.2799 56.6591 57.4488 55.5114 60.3925C55.2778 60.9851 55.0215 61.5691 54.7432 62.1378C54.7353 62.1616 54.7273 62.1703 54.7273 62.1866C54.7247 62.1989 54.7196 62.2104 54.7124 62.2203C52.3513 67.0953 48.5269 70.9351 43.8808 73.0953C41.1796 74.3674 38.2664 75.0148 35.3249 74.9969H20.9049L21.0709 74.948C25.7297 73.631 29.8837 70.7287 32.9316 66.6612C35.9795 62.5938 37.763 57.5724 38.0238 52.3241V52.3155C38.2995 51.5322 38.3047 50.6661 38.0387 49.8789C38.0318 49.8626 38.0238 49.8376 38.0159 49.8214C37.8725 49.4429 37.6625 49.0988 37.3978 48.8087C37.1266 48.5121 36.8029 48.2788 36.4466 48.123C36.0902 47.9672 35.7085 47.8922 35.3249 47.9025H22.8954C22.2773 47.9025 21.6592 47.8786 21.048 47.8124C21.0262 47.8124 21.0033 47.8037 20.9735 47.8037C18.6903 47.6063 16.4532 46.9945 14.3543 45.9934C9.13164 43.5379 4.973 38.9838 2.73867 33.2732C2.44445 32.5375 2.18769 31.7846 1.96954 31.0179C1.31734 28.7225 0.98962 26.3318 0.997679 23.9285C0.984582 20.7216 1.57725 17.5463 2.73867 14.6011C4.98597 8.90791 9.14171 4.36903 14.3543 1.91455C15.8757 1.18703 17.4734 0.66721 19.1113 0.366862C19.1719 0.349496 19.2166 0.341893 19.2464 0.33321C19.2614 0.329047 19.2767 0.326498 19.2921 0.325609C20.4828 0.108134 21.6881 -0.000778331 22.8954 4.18666e-06H37.4435C32.7642 1.26637 28.5771 4.13056 25.4914 8.17579C22.4057 12.221 20.5824 17.2362 20.2868 22.4915C20.255 22.5525 20.2274 22.616 20.2044 22.6814C20.0555 23.0753 19.9812 23.498 19.9857 23.9241C19.9815 24.3703 20.0581 24.8129 20.2113 25.2265C20.2273 25.2725 20.2476 25.3165 20.2719 25.3578C20.4018 25.6876 20.5887 25.9868 20.8225 26.2391C21.0945 26.535 21.4182 26.7682 21.7742 26.9252C22.1303 27.0822 22.5115 27.1596 22.8954 27.153H35.3249C38.2601 27.1359 41.1679 27.7718 43.8709 29.0219C49.1264 31.435 53.307 36.001 55.5163 41.741C55.8083 42.485 56.0627 43.2458 56.2785 44.0202C56.9169 46.3084 57.2378 48.6883 57.2305 51.0803Z" fill="url(#paint2_linear)"/>
<path d="M57.2305 51.0803C57.2441 54.2799 56.6591 57.4488 55.5114 60.3925C55.2778 60.9851 55.0215 61.5691 54.7432 62.1378C54.7353 62.1616 54.7273 62.1703 54.7273 62.1866C54.7247 62.1989 54.7196 62.2104 54.7124 62.2203C52.3513 67.0953 48.5269 70.9351 43.8808 73.0953C41.1796 74.3674 38.2664 75.0148 35.3249 74.9969H20.9049L21.0709 74.948C25.7297 73.631 29.8837 70.7287 32.9316 66.6612C35.9795 62.5938 37.763 57.5724 38.0238 52.3241V52.3155C38.2995 51.5322 38.3047 50.6661 38.0387 49.8789C38.0318 49.8626 38.0238 49.8376 38.0159 49.8214C37.8725 49.4429 37.6625 49.0988 37.3978 48.8087C37.1266 48.5121 36.8029 48.2788 36.4466 48.123C36.0902 47.9672 35.7085 47.8922 35.3249 47.9025H22.8954C22.2773 47.9025 21.6592 47.8786 21.048 47.8124C21.0262 47.8124 21.0033 47.8037 20.9735 47.8037C18.6903 47.6063 16.4532 46.9945 14.3543 45.9934C9.13164 43.5379 4.973 38.9838 2.73867 33.2732C2.44445 32.5375 2.18769 31.7846 1.96954 31.0179C1.31734 28.7225 0.98962 26.3318 0.997679 23.9285C0.984582 20.7216 1.57725 17.5463 2.73867 14.6011C4.98597 8.90791 9.14171 4.36903 14.3543 1.91455C15.8757 1.18703 17.4734 0.66721 19.1113 0.366862C19.1719 0.349496 19.2166 0.341893 19.2464 0.33321C19.2614 0.329047 19.2767 0.326498 19.2921 0.325609C20.4828 0.108134 21.6881 -0.000778331 22.8954 4.18666e-06H37.4435C32.7642 1.26637 28.5771 4.13056 25.4914 8.17579C22.4057 12.221 20.5824 17.2362 20.2868 22.4915C20.255 22.5525 20.2274 22.616 20.2044 22.6814C20.0555 23.0753 19.9812 23.498 19.9857 23.9241C19.9815 24.3703 20.0581 24.8129 20.2113 25.2265C20.2273 25.2725 20.2476 25.3165 20.2719 25.3578C20.4018 25.6876 20.5887 25.9868 20.8225 26.2391C21.0945 26.535 21.4182 26.7682 21.7742 26.9252C22.1303 27.0822 22.5115 27.1596 22.8954 27.153H35.3249C38.2601 27.1359 41.1679 27.7718 43.8709 29.0219C49.1264 31.435 53.307 36.001 55.5163 41.741C55.8083 42.485 56.0627 43.2458 56.2785 44.0202C56.9169 46.3084 57.2378 48.6883 57.2305 51.0803Z" fill="url(#paint3_linear)"/>
<path d="M52.6755 0H113.124L103.452 20.7203H92.8131H86.5265V75.5H75.8876H65.2487V20.7203H52.6755V0Z" fill="url(#paint4_linear)"/>
<defs>
<linearGradient id="paint0_linear" x1="54.6746" y1="11.2497" x2="21.6966" y2="11.2497" gradientUnits="userSpaceOnUse">
<stop stop-color="white"/>
<stop offset="1" stop-color="#F2F2F2"/>
</linearGradient>
<linearGradient id="paint1_linear" x1="3.14894" y1="63.6636" x2="34.8352" y2="63.6636" gradientUnits="userSpaceOnUse">
<stop stop-color="white"/>
<stop offset="1" stop-color="#F2F2F2"/>
</linearGradient>
<linearGradient id="paint2_linear" x1="29.1141" y1="-0.599978" x2="29.1141" y2="77.0221" gradientUnits="userSpaceOnUse">
<stop stop-color="white"/>
<stop offset="1" stop-color="#F2F2F2"/>
</linearGradient>
<linearGradient id="paint3_linear" x1="29.1141" y1="-0.599978" x2="29.1141" y2="77.0221" gradientUnits="userSpaceOnUse">
<stop stop-color="white"/>
<stop offset="1" stop-color="#F2F2F2"/>
</linearGradient>
<linearGradient id="paint4_linear" x1="75.8876" y1="0" x2="75.8876" y2="75.5" gradientUnits="userSpaceOnUse">
<stop stop-color="white"/>
<stop offset="1" stop-color="#F2F2F2"/>
</linearGradient>
</defs>
</svg>
